<svg xmlns="http://www.w3.org/2000/svg" id="Слой_1" viewBox="0 0 110.8 23.3" width="158">
    <path fill="#fff" d="M3.6 18.1V7.9H0v-3h10.7v3H7.1v10.2H3.6zm19.3-.1c0 3.5-2.4 5.3-5.5 5.3-1.6 0-3.4-.5-4.6-1.8l1.7-2.2c.6.6 1.6 1 2.5 1 1.5 0 2.5-.6 2.5-2.4-.7.2-1.5.4-2.3.4-2.9 0-4.9-1.5-4.9-4.4v-9h3.4V14c0 1 .8 1.6 2 1.6.5 0 1.1-.2 1.5-.4V4.9h3.6V18zm2.9-12.4c1.6-.6 3.5-1 5.2-1 2.8 0 5.5.9 5.5 4.4v4.8c0 3.1-2.5 4.5-4.9 4.5-.7 0-1.5-.2-2.1-.5V23h-3.6V5.6zm3.6 9.7c.4.2.9.3 1.4.3 1.2 0 2.1-.6 2.1-1.8v-5c0-1.1-.9-1.5-2.1-1.5-.5 0-1 .1-1.4.3v7.7zm17.2-4.7l-.6 1.1-3.4 6.4h-3.7V4.9h3.6v8l.7-1.3 3.3-6.7h3.7v13.2h-3.6v-7.5zm16.5 4.2c-.9 2.7-3.3 3.6-5.2 3.6-2.6 0-5.3-1.5-5.3-4.7V9.3c0-3.1 2.7-4.7 5.3-4.7 1.9 0 4.3.9 5 3.6l-3 .9c-.3-.9-1.2-1.3-2-1.3-.9 0-1.8.5-1.8 1.5v4.4c0 1 .9 1.5 1.8 1.5.8 0 1.7-.4 2-1.4l3.2 1zm4.5 3.3V7.9H64v-3h10.7v3h-3.6v10.2h-3.5zM81.7 5.6c1.6-.6 3.5-1 5.2-1 2.8 0 5.5.9 5.5 4.4v4.8c0 3.1-2.5 4.5-4.9 4.5-.7 0-1.5-.2-2.1-.5V23h-3.6V5.6zm3.6 9.7c.4.2.9.3 1.4.3 1.2 0 2.1-.6 2.1-1.8v-5c0-1.1-.9-1.5-2.1-1.5-.5 0-1 .1-1.4.3v7.7zm19.1-10.4c.3-.2 1.1-.3 1.7-.3 2.8 0 4.6 1.7 4.6 4.4v4.9c0 2.8-1.8 4.4-4.6 4.4-.7 0-1.4-.2-1.7-.3v4.8H101V18c-.3.2-1.1.3-1.7.3-2.8 0-4.6-1.7-4.6-4.4V9c0-2.8 1.8-4.4 4.6-4.4.7 0 1.4.2 1.7.3V0h3.5v4.9zm-6.2 4.3v4.6c0 1.1.9 1.6 1.8 1.6.4 0 .7-.1 1-.3V7.9c-.3-.2-.6-.3-1-.3-.9 0-1.8.5-1.8 1.6zm6.2-1.3v7.3c.3.2.6.3 1 .3.9 0 1.8-.5 1.8-1.6V9.2c0-1.1-.9-1.6-1.8-1.6-.3 0-.7.1-1 .3z"/>
    <path fill="#efd690" d="M77.4 13.9c1 .1 1.8 1 1.9 2 .1 1.3-.9 2.4-2.2 2.4-1.2 0-2.2-1-2.2-2.2.1-1.4 1.2-2.4 2.5-2.2z"/>
</svg>
