<svg width="16" height="16" viewBox="0 0 16 16" fill="none" xmlns="http://www.w3.org/2000/svg">
<path fill-rule="evenodd" clip-rule="evenodd" d="M13.139 6.8376C13.139 9.4136 11.0432 11.5094 8.4672 11.5094C5.8912 11.5094 3.7954 9.4136 3.7954 6.8376C3.7954 4.2616 5.8912 2.1658 8.4672 2.1658C11.0432 2.1658 13.139 4.2616 13.139 6.8376ZM8.4672 0C4.697 0 1.6296 3.0674 1.6296 6.8376C1.6296 8.3034 2.1056 9.702 3.0086 10.9018L0.3066 13.6038C-0.1022 14.014 -0.1022 14.6804 0.3066 15.0892C0.5054 15.288 0.7686 15.3972 1.0486 15.3972C1.3286 15.3972 1.5932 15.288 1.792 15.0892L4.5052 12.3746C5.6854 13.2272 7.0476 13.6752 8.4672 13.6752C12.2374 13.6752 15.3048 10.6078 15.3048 6.8376C15.3048 3.0674 12.2374 0 8.4672 0Z" fill="white"/>
</svg>
