<svg width="7" height="22" viewBox="0 0 7 22" fill="none" xmlns="http://www.w3.org/2000/svg">
<path fill-rule="evenodd" clip-rule="evenodd" d="M4.3148 2.954C4.0096 2.6166 3.857 2.212 3.857 1.7374C3.857 1.253 4.0096 0.8428 4.3148 0.504C4.62 0.168 4.9882 0 5.4208 0C5.852 0 6.223 0.168 6.5338 0.504C6.8446 0.8428 7 1.253 7 1.7374C7 2.2232 6.8446 2.6306 6.5338 2.9624C6.223 3.2942 5.852 3.4594 5.4208 3.4594C4.9882 3.4594 4.62 3.2914 4.3148 2.954ZM5.8058 6.9132C5.8632 6.9496 5.887 6.9944 5.8772 7.0476L2.6866 18.3288C2.5382 18.9294 2.4654 19.2878 2.4654 19.404C2.4654 19.5608 2.4976 19.698 2.5606 19.8142C2.6138 19.9402 2.744 20.0046 2.9554 20.0046C3.3138 20.0046 3.7884 19.6938 4.3778 19.0722C4.725 18.704 5.152 18.1762 5.6574 17.4916L6.0676 17.8388L5.9108 18.06C5.1198 19.166 4.4674 19.9612 3.9508 20.4456C3.1402 21.2044 2.3492 21.5838 1.5806 21.5838C1.127 21.5838 0.7518 21.3934 0.4508 21.0154C0.1498 20.636 0 20.188 0 19.6714C0 19.3662 0.0224 19.1016 0.063 18.8734C0.105 18.648 0.1848 18.3134 0.301 17.8696L2.5508 9.7496C2.5816 9.6222 2.6082 9.5074 2.6292 9.401C2.6502 9.296 2.6614 9.191 2.6614 9.0846C2.6614 8.7066 2.5214 8.4714 2.2428 8.3818C1.9628 8.2922 1.414 8.2474 0.5936 8.2474V7.7266C1.4602 7.6216 2.086 7.539 2.4668 7.4816C2.849 7.4242 3.2326 7.3626 3.619 7.2996C4.1216 7.2156 4.5962 7.1204 5.0456 7.0154C5.495 6.9104 5.7484 6.8754 5.8058 6.9132Z" fill="white"/>
</svg>
