<svg width="13" height="11" viewBox="0 0 13 11" fill="none" xmlns="http://www.w3.org/2000/svg">
<rect x="0.5" y="1.5" width="12" height="9" stroke="#639BEE"/>
<line x1="9.5" x2="9.5" y2="3" stroke="#639BEE"/>
<line x1="3.5" x2="3.5" y2="3" stroke="#639BEE"/>
<rect x="2" y="4" width="1" height="1" fill="#639BEE"/>
<rect x="4" y="4" width="1" height="1" fill="#639BEE"/>
<rect x="6" y="4" width="1" height="1" fill="#639BEE"/>
<rect x="8" y="4" width="1" height="1" fill="#639BEE"/>
<rect x="10" y="4" width="1" height="1" fill="#639BEE"/>
<rect x="10" y="6" width="1" height="1" fill="#639BEE"/>
<rect x="8" y="6" width="1" height="1" fill="#639BEE"/>
<rect x="6" y="6" width="1" height="1" fill="#639BEE"/>
<rect x="4" y="6" width="1" height="1" fill="#639BEE"/>
<rect x="2" y="6" width="1" height="1" fill="#639BEE"/>
<rect x="2" y="8" width="1" height="1" fill="#639BEE"/>
<rect x="4" y="8" width="1" height="1" fill="#639BEE"/>
<rect x="6" y="8" width="1" height="1" fill="#639BEE"/>
<rect x="8" y="8" width="1" height="1" fill="#639BEE"/>
<rect x="10" y="8" width="1" height="1" fill="#639BEE"/>
</svg>
