<svg width="14" height="14" viewBox="0 0 14 14" fill="none" xmlns="http://www.w3.org/2000/svg">
<path fill-rule="evenodd" clip-rule="evenodd" d="M11.7684 2.26634C10.5273 1.02541 8.95697 0.24177 7.22364 0L7.07209 1.08075C8.56964 1.29044 9.92727 1.96924 10.9992 3.03854C12.016 4.05514 12.6832 5.33996 12.925 6.75288L14 6.56925C13.7177 4.93219 12.9454 3.44631 11.7684 2.26634ZM10.0874 6.93938L11.1626 6.75594C10.9934 5.76823 10.5273 4.87392 9.81922 4.16305C9.07063 3.41448 8.12378 2.94238 7.0809 2.79683L6.92915 3.87758C7.73627 3.99124 8.47041 4.3553 9.05038 4.93506C9.59808 5.48256 9.95634 6.17618 10.0874 6.93938ZM10.6438 9.26114C10.1865 8.80986 9.61538 8.80986 9.16109 9.26114C8.81427 9.60513 8.46764 9.94875 8.12683 10.2984C8.03361 10.3946 7.95483 10.4148 7.84135 10.3507C7.61702 10.2284 7.37805 10.1294 7.16235 9.99527C6.15735 9.36318 5.31535 8.55046 4.56958 7.63552C4.1995 7.18105 3.87032 6.69451 3.64017 6.14682C3.59365 6.03635 3.60228 5.96338 3.6925 5.87298C4.03932 5.53799 4.37732 5.19418 4.71813 4.85038C5.19287 4.37265 5.19287 3.81333 4.71513 3.33261C4.44428 3.05876 4.17343 2.79073 3.90239 2.51689C3.62273 2.23723 3.34606 1.95457 3.0634 1.67791C2.60591 1.23207 2.03477 1.23207 1.58047 1.68073C1.23066 2.02453 0.895658 2.37715 0.540401 2.71496C0.211217 3.02688 0.0450308 3.40838 0.0101429 3.85403C-0.0451901 4.57953 0.132438 5.26414 0.383031 5.93131C0.895658 7.31216 1.67651 8.53864 2.62336 9.66328C3.90239 11.1841 5.42902 12.3871 7.21487 13.2553C8.01898 13.6456 8.85216 13.9459 9.75812 13.9953C10.3816 14.0303 10.9235 13.873 11.3577 13.3864C11.655 13.0544 11.99 12.7513 12.3046 12.4338C12.7709 11.9617 12.7735 11.3907 12.3104 10.9246C11.7569 10.3681 11.2005 9.81464 10.6438 9.26114Z" fill="#1F1F1F"/>
</svg>
