<svg width="10" height="18" viewBox="0 0 10 18" fill="none" xmlns="http://www.w3.org/2000/svg">
<path fill-rule="evenodd" clip-rule="evenodd" d="M9.62428 0.00351114L7.22543 0C4.53072 0 2.78876 1.73895 2.78876 4.42989V6.47268H0.376678C0.169096 6.47268 0 6.6363 0 6.83924V9.79937C0 10.0011 0.169096 10.1657 0.376678 10.1657H2.78876V17.6334C2.78876 17.8357 2.95786 18 3.1664 18H6.31212C6.52066 18 6.68976 17.8357 6.68976 17.6334V10.1657H9.50955C9.71809 10.1657 9.88647 10.0011 9.88647 9.79937L9.88815 6.83924C9.88815 6.74233 9.84774 6.64917 9.77726 6.57965C9.70679 6.51107 9.61106 6.47268 9.51051 6.47268H6.68976V4.74098C6.68976 3.90884 6.89373 3.48633 8.00717 3.48633L9.62332 3.4854C9.83187 3.4854 10 3.32084 10 3.11883V0.371245C10 0.168067 9.83187 0.00444745 9.62428 0.00351114Z" fill="white"/>
</svg>
