<svg width="20" height="23" viewBox="0 0 20 23" fill="none" xmlns="http://www.w3.org/2000/svg">
<path fill-rule="evenodd" clip-rule="evenodd" d="M19.0538 21.9393C18.8578 22.0793 18.6618 22.2193 18.4658 22.3733C12.2918 17.5993 5.82384 19.1813 1.56784 21.9953C1.32984 21.8273 1.10584 21.6593 0.881836 21.4633C4.85784 18.6493 8.80584 18.6773 9.47784 18.6353C10.8778 15.7233 11.4238 8.91932 9.93984 4.49533C9.14184 5.54533 7.06984 9.64733 6.62184 13.0633C4.98384 11.5373 4.96984 9.66132 5.13784 8.51332C5.44584 6.49732 8.76384 4.55132 8.76384 4.55132C8.76384 4.55132 5.47384 5.13933 1.13384 9.26933C0.909836 6.60933 2.98184 3.55732 8.53984 3.66932C6.74784 2.52132 2.58984 2.96932 2.58984 2.96932C2.58984 2.96932 5.58584 -1.52468 9.40784 2.87132C9.72984 0.0713248 13.2858 -0.502675 16.4078 0.729325C11.7878 1.73732 11.1858 2.95532 11.1438 3.10932C11.3398 3.05332 15.2458 1.70932 16.1698 5.99332C14.1538 4.41132 10.7798 4.07532 10.7798 4.07532C10.7798 4.07532 14.3358 10.0253 12.0118 18.6913C12.6698 18.7753 16.6318 19.6573 19.0538 21.9393Z" fill="white"/>
</svg>
