<svg width="18" height="18" viewBox="0 0 18 18" fill="none" xmlns="http://www.w3.org/2000/svg">
<path fill-rule="evenodd" clip-rule="evenodd" d="M4.36536 3.01425C5.23249 3.01425 5.9397 3.72011 5.9397 4.58866C5.9397 5.45582 5.23249 6.16168 4.36536 6.16168C3.49823 6.16168 2.79102 5.45582 2.79102 4.58866C2.79102 3.72011 3.49823 3.01425 4.36536 3.01425ZM8.00709 4.58865C8.00709 2.57998 6.37347 0.946289 4.36487 0.946289C2.35628 0.946289 0.722656 2.57998 0.722656 4.58865C0.722656 6.59595 2.35628 8.22964 4.36487 8.22964C6.37347 8.22964 8.00709 6.59595 8.00709 4.58865Z" fill="white"/>
<path fill-rule="evenodd" clip-rule="evenodd" d="M13.649 15.5755C12.7819 15.5755 12.0747 14.8696 12.0747 14.0011C12.0747 13.1339 12.7819 12.4281 13.649 12.4281C14.5162 12.4281 15.2234 13.1339 15.2234 14.0011C15.2234 14.8696 14.5162 15.5755 13.649 15.5755ZM13.6491 10.3601C11.6405 10.3601 10.0068 11.9938 10.0068 14.0011C10.0068 16.0098 11.6405 17.6435 13.6491 17.6435C15.6576 17.6435 17.2913 16.0098 17.2913 14.0011C17.2913 11.9938 15.6576 10.3601 13.6491 10.3601Z" fill="white"/>
<path fill-rule="evenodd" clip-rule="evenodd" d="M15.5407 2.46037C15.1382 2.05781 14.4806 2.05781 14.0781 2.46037L2.46212 14.0782C2.0582 14.4807 2.0582 15.137 2.46212 15.5395C2.6565 15.7353 2.91706 15.8428 3.19277 15.8428C3.46849 15.8428 3.72904 15.7353 3.92342 15.5395L15.5407 3.92311C15.9433 3.51916 15.9433 2.86293 15.5407 2.46037Z" fill="white"/>
</svg>
