<svg width="12" height="12" viewBox="0 0 12 12" fill="none" xmlns="http://www.w3.org/2000/svg">
<path d="M10.8387 10.6667H9.83816V5.16667C9.83816 5.07463 9.76349 5 9.6714 5H7.33679V1.16667C7.33679 1.07463 7.26213 1 7.17003 1H2.83433C2.74224 1 2.66758 1.07463 2.66758 1.16667V10.6667H1.16676C1.07467 10.6667 1 10.7413 1 10.8333C1 10.9254 1.07467 11 1.16676 11H10.8387C11.0538 11 11.0538 10.6667 10.8387 10.6667ZM5.16894 5.16667V10.6667C3.77684 10.6667 4.06456 10.6667 3.00109 10.6667V1.33333H7.00328V5H5.3357C5.24361 5 5.16894 5.07463 5.16894 5.16667ZM9.50464 10.6667H5.50246V5.33333H9.50464V10.6667Z" fill="black"/>
<path d="M10.8387 10.5417H9.96316V5.16667C9.96316 5.00552 9.83246 4.875 9.6714 4.875H7.46179V1.16667C7.46179 1.00553 7.3311 0.875 7.17003 0.875H2.83433C2.67327 0.875 2.54258 1.00553 2.54258 1.16667V10.5417H1.16676C1.00569 10.5417 0.875 10.6722 0.875 10.8333C0.875 10.9945 1.00569 11.125 1.16676 11.125H10.8387C10.9278 11.125 11.0031 11.0891 11.0544 11.0294C11.1035 10.9724 11.125 10.9006 11.125 10.8333C11.125 10.7661 11.1035 10.6943 11.0544 10.6372C11.0031 10.5776 10.9278 10.5417 10.8387 10.5417ZM5.04394 5.16667V10.5417H5.04326H5.03572H5.02822H5.02075H5.01331H5.00592H4.99856H4.99123H4.98394H4.97668H4.96946H4.96228H4.95513H4.94801H4.94093H4.93388H4.92687H4.91989H4.91294H4.90603H4.89916H4.89231H4.8855H4.87873H4.87198H4.86527H4.85859H4.85195H4.84534H4.83875H4.83221H4.82569H4.81921H4.81276H4.80634H4.79995H4.79359H4.78727H4.78097H4.77471H4.76848H4.76228H4.75611H4.74997H4.74386H4.73778H4.73173H4.72571H4.71973H4.71377H4.70784H4.70194H4.69607H4.69023H4.68442H4.67863H4.67288H4.66715H4.66146H4.65579H4.65015H4.64453H4.63895H4.63339H4.62787H4.62237H4.61689H4.61145H4.60603H4.60064H4.59527H4.58993H4.58462H4.57934H4.57408H4.56885H4.56364H4.55846H4.55331H4.54818H4.54307H4.538H4.53294H4.52792H4.52292H4.51794H4.51299H4.50806H4.50316H4.49828H4.49342H4.48859H4.48378H4.479H4.47424H4.46951H4.4648H4.46011H4.45544H4.4508H4.44618H4.44158H4.43701H4.43245H4.42792H4.42342H4.41893H4.41447H4.41003H4.40561H4.40121H4.39683H4.39247H4.38814H4.38382H4.37953H4.37526H4.37101H4.36678H4.36256H4.35837H4.3542H4.35005H4.34592H4.34181H4.33772H4.33364H4.32959H4.32555H4.32154H4.31754H4.31356H4.3096H4.30566H4.30174H4.29783H4.29395H4.29008H4.28623H4.28239H4.27858H4.27478H4.271H4.26723H4.26348H4.25975H4.25604H4.25234H4.24866H4.24499H4.24134H4.23771H4.23409H4.23049H4.2269H4.22333H4.21978H4.21624H4.21271H4.2092H4.20571H4.20222H4.19876H4.1953H4.19187H4.18844H4.18503H4.18164H4.17825H4.17488H4.17153H4.16818H4.16485H4.16154H4.15823H4.15494H4.15166H4.1484H4.14514H4.1419H4.13867H4.13546H4.13225H4.12906H4.12587H4.1227H4.11954H4.11639H4.11325H4.11013H4.10701H4.1039H4.10081H4.09772H4.09465H4.09158H4.08852H4.08548H4.08244H4.07942H4.0764H4.07339H4.07039H4.0674H4.06442H4.06145H4.05848H4.05552H4.05258H4.04964H4.04671H4.04378H4.04086H4.03796H4.03505H4.03216H4.02927H4.02639H4.02352H4.02065H4.01779H4.01494H4.01209H4.00925H4.00642H4.00359H4.00077H3.99795H3.99514H3.99233H3.98953H3.98674H3.98394H3.98116H3.97838H3.9756H3.97283H3.97006H3.9673H3.96454H3.96178H3.95903H3.95628H3.95353H3.95079H3.94805H3.94532H3.94259H3.93986H3.93713H3.9344H3.93168H3.92896H3.92624H3.92353H3.92082H3.9181H3.91539H3.91268H3.90998H3.90727H3.90456H3.90186H3.89916H3.89645H3.89375H3.89105H3.88835H3.88564H3.88294H3.88024H3.87754H3.87483H3.87213H3.86943H3.86672H3.86402H3.86131H3.8586H3.85589H3.85318H3.85047H3.84775H3.84504H3.84232H3.8396H3.83687H3.83415H3.83142H3.82869H3.82595H3.82322H3.82048H3.81773H3.81499H3.81224H3.80948H3.80672H3.80396H3.8012H3.79843H3.79565H3.79287H3.79009H3.7873H3.78451H3.78171H3.7789H3.7761H3.77328H3.77046H3.76764H3.7648H3.76197H3.75912H3.75627H3.75342H3.75055H3.74768H3.74481H3.74192H3.73903H3.73614H3.73323H3.73032H3.7274H3.72447H3.72154H3.71859H3.71564H3.71268H3.70971H3.70673H3.70375H3.70075H3.69775H3.69474H3.69171H3.68868H3.68564H3.68259H3.67953H3.67646H3.67338H3.67029H3.66719H3.66408H3.66096H3.65782H3.65468H3.65152H3.64836H3.64518H3.64199H3.63879H3.63558H3.63236H3.62912H3.62588H3.62262H3.61934H3.61606H3.61276H3.60945H3.60613H3.60279H3.59944H3.59608H3.5927H3.58932H3.58591H3.58249H3.57906H3.57562H3.57216H3.56869H3.5652H3.56169H3.55818H3.55464H3.5511H3.54753H3.54395H3.54036H3.53675H3.53313H3.52948H3.52583H3.52215H3.51846H3.51476H3.51104H3.5073H3.50354H3.49977H3.49598H3.49217H3.48834H3.4845H3.48064H3.47676H3.47287H3.46896H3.46502H3.46107H3.4571H3.45312H3.44911H3.44509H3.44104H3.43698H3.4329H3.42879H3.42467H3.42053H3.41637H3.41219H3.40799H3.40377H3.39953H3.39527H3.39098H3.38668H3.38236H3.37801H3.37364H3.36926H3.36485H3.36042H3.35596H3.35149H3.34699H3.34248H3.33793H3.33337H3.32879H3.32418H3.31955H3.31489H3.31022H3.30552H3.30079H3.29605H3.29127H3.28648H3.28166H3.27682H3.27195H3.26706H3.26215H3.25721H3.25224H3.24725H3.24224H3.2372H3.23214H3.22705H3.22193H3.21679H3.21162H3.20643H3.20121H3.19597H3.1907H3.1854H3.18007H3.17472H3.16934H3.16394H3.15851H3.15305H3.14756H3.14205H3.13651H3.13094H3.12609V1.45833H6.87828V4.875H5.3357C5.17464 4.875 5.04394 5.00553 5.04394 5.16667ZM9.37964 10.5417H5.62746V5.45833H9.37964V10.5417Z" stroke="black" stroke-opacity="0.3" stroke-width="0.25"/>
</svg>
