<svg width="9" height="14" viewBox="0 0 9 14" fill="none" xmlns="http://www.w3.org/2000/svg">
<path d="M4.5 12L4.20969 12.2374L4.5 12.5924L4.7903 12.2374L4.5 12ZM4.5 12C4.7903 12.2374 4.79036 12.2373 4.79043 12.2372L4.79064 12.237L4.79129 12.2362L4.79354 12.2334L4.80177 12.2232L4.83252 12.1849C4.85916 12.1515 4.89781 12.1026 4.94676 12.0394C5.04464 11.9132 5.1838 11.7299 5.35047 11.5C5.68355 11.0406 6.12792 10.3931 6.57282 9.64036C7.45208 8.15279 8.375 6.18681 8.375 4.4375C8.375 2.32574 6.6337 0.625 4.5 0.625C2.366 0.625 0.625 2.32576 0.625 4.4375C0.625 6.18681 1.54791 8.15279 2.42718 9.64036C2.87208 10.3931 3.31645 11.0406 3.64952 11.5C3.8162 11.7299 3.95535 11.9132 4.05324 12.0394C4.10218 12.1026 4.14084 12.1515 4.16748 12.1849L4.19823 12.2232L4.20645 12.2334L4.20871 12.2362L4.20936 12.237L4.20957 12.2372C4.20964 12.2373 4.20969 12.2374 4.5 12Z" stroke="black" stroke-opacity="0.6" stroke-width="0.75"/>
</svg>
