<svg width="12" height="20" viewBox="0 0 12 20" fill="none" xmlns="http://www.w3.org/2000/svg">
<path fill-rule="evenodd" clip-rule="evenodd" d="M8.47212 5.05761C8.46689 3.68193 7.3725 2.58668 6.00106 2.58563C4.61706 2.58354 3.51352 3.69843 3.52372 5.08719C3.53392 6.45685 4.63772 7.54503 6.01309 7.53979C7.3848 7.53482 8.47604 6.43224 8.47212 5.05761ZM5.95998 10.1236C3.19669 10.1144 0.929957 7.82127 0.946177 5.05054C0.961613 2.24891 3.22939 -0.00835544 6.02042 2.32501e-05C8.81747 0.00709277 11.0617 2.29709 11.0484 5.12726C11.0342 7.8917 8.75206 10.1327 5.95998 10.1236ZM5.01577 14.0867C3.46747 13.9251 2.07039 13.5436 0.873707 12.6079C0.725365 12.4913 0.572313 12.3787 0.437314 12.2489C-0.0859383 11.7456 -0.139048 11.1699 0.274844 10.5755C0.629348 10.0673 1.22429 9.93112 1.84251 10.2228C1.96207 10.2799 2.07666 10.3506 2.18576 10.4263C4.41482 11.958 7.47558 12.0014 9.7138 10.4949C9.93566 10.3249 10.1716 10.1859 10.4466 10.1152C10.9811 9.97825 11.4787 10.1746 11.7649 10.642C12.093 11.1759 12.0878 11.6975 11.6852 12.1114C11.0659 12.7469 10.3218 13.2072 9.49508 13.5285C8.71334 13.8311 7.85782 13.9835 7.00963 14.0854C7.13835 14.2249 7.19774 14.293 7.27832 14.3731C8.42921 15.531 9.58508 16.6822 10.7318 17.8435C11.1221 18.2394 11.2038 18.7293 10.9892 19.1896C10.7532 19.6918 10.2268 20.023 9.71066 19.9874C9.38363 19.9649 9.12828 19.8023 8.90119 19.5732C8.03259 18.6986 7.14855 17.8403 6.29722 16.9496C6.04998 16.6898 5.93042 16.7388 5.71275 16.964C4.83892 17.8639 3.95096 18.7507 3.05776 19.6313C2.65695 20.0272 2.17975 20.0987 1.71484 19.8727C1.2201 19.6334 0.905364 19.128 0.929957 18.6209C0.946177 18.2771 1.11493 18.0142 1.35091 17.7791C2.48951 16.6417 3.62471 15.5003 4.76121 14.3608C4.83682 14.2852 4.90641 14.2045 5.01577 14.0867Z" fill="white"/>
</svg>
