<svg width="17" height="17" viewBox="0 0 17 17" fill="none" xmlns="http://www.w3.org/2000/svg">
<path fill-rule="evenodd" clip-rule="evenodd" d="M14.1706 11.4857C13.7142 11.0322 12.9736 11.0322 12.5158 11.4857L12.1098 11.8906C11.694 12.3024 11.0346 12.3566 10.546 12.0199C9.94118 11.6026 8.78058 10.6399 7.73758 9.60201C6.67078 8.5419 5.60678 7.29537 5.19378 6.70132C4.85358 6.213 4.90958 5.55913 5.32538 5.14733L5.73138 4.74249C6.18638 4.29034 6.18638 3.553 5.73138 3.09946L3.36258 0.746912C3.12598 0.510405 2.78998 0.389369 2.46098 0.406064C2.13058 0.42415 1.82538 0.579966 1.62238 0.833167C-0.687616 3.71438 0.491184 7.4011 5.22178 12.1034C8.32418 15.1864 10.9912 16.7181 13.283 16.7181C14.4296 16.7181 15.4824 16.3341 16.4512 15.5689C16.706 15.3672 16.8628 15.0625 16.881 14.7356C16.9006 14.4017 16.7746 14.0748 16.538 13.8383L14.1706 11.4857Z" fill="white"/>
</svg>
