<svg width="20" height="11" viewBox="0 0 20 11" fill="none" xmlns="http://www.w3.org/2000/svg">
<path fill-rule="evenodd" clip-rule="evenodd" d="M19.8945 9.93393C19.8702 9.88342 19.8477 9.84199 19.8265 9.80842C19.4795 9.20612 18.8161 8.46691 17.8375 7.59033L17.8169 7.56984L17.8064 7.56014L17.7957 7.55013H17.7858C17.3415 7.14156 17.0598 6.86713 16.9421 6.72714C16.7265 6.45933 16.6781 6.18798 16.7959 5.91386C16.8794 5.70611 17.1916 5.26828 17.7334 4.59868C18.0179 4.24432 18.2438 3.95988 18.4098 3.74566C19.6113 2.20625 20.1316 1.22264 19.9719 0.794359L19.9102 0.694411C19.8683 0.63435 19.761 0.578909 19.5875 0.529013C19.414 0.478654 19.1919 0.47003 18.9209 0.503756L15.9215 0.523776C15.8735 0.507606 15.8037 0.50853 15.7138 0.529013C15.6233 0.549033 15.5777 0.559043 15.5777 0.559043L15.526 0.584607L15.4847 0.614484C15.4498 0.63435 15.4117 0.669155 15.37 0.719667C15.3286 0.769718 15.2939 0.828547 15.2664 0.895538C14.9392 1.70513 14.5687 2.45774 14.1517 3.15367C13.8945 3.56871 13.6587 3.92846 13.4435 4.23292C13.228 4.53738 13.0478 4.76192 12.9022 4.90545C12.7562 5.04929 12.6247 5.16479 12.5065 5.25134C12.3881 5.33866 12.2983 5.37531 12.2357 5.36207C12.1732 5.34821 12.1141 5.33496 12.0587 5.32172C11.9612 5.26166 11.8831 5.17973 11.8246 5.07578C11.7653 4.97229 11.7254 4.84169 11.7048 4.68415C11.684 4.52707 11.6717 4.3917 11.6677 4.27804C11.6648 4.16439 11.6666 4.00315 11.6733 3.79633C11.6802 3.58858 11.684 3.44782 11.684 3.37451C11.684 3.11995 11.6891 2.84382 11.6992 2.54613C11.7097 2.24829 11.7185 2.01252 11.7254 1.83865C11.7322 1.66478 11.7359 1.48075 11.7359 1.2864C11.7359 1.09266 11.7233 0.940661 11.6992 0.829779C11.6754 0.719667 11.6386 0.612636 11.5899 0.50853C11.541 0.405041 11.4701 0.324652 11.3764 0.267979C11.2828 0.210844 11.1668 0.165721 11.028 0.132149C10.6601 0.0520674 10.1913 0.00863879 9.62222 0.00140068C8.33099 -0.0118435 7.50149 0.0688537 7.13323 0.242722C6.98704 0.316027 6.85555 0.416591 6.73749 0.543489C6.61287 0.690869 6.59514 0.771412 6.68508 0.784656C7.10207 0.844871 7.39652 0.988863 7.57083 1.21602L7.63298 1.33691C7.68186 1.42361 7.73059 1.57761 7.77868 1.7983C7.82725 2.01914 7.85856 2.26339 7.87214 2.53104C7.90713 3.01969 7.90713 3.43765 7.87214 3.78601C7.83795 4.13359 7.80488 4.40494 7.77341 4.59868C7.74225 4.79303 7.6956 4.94996 7.63298 5.07085C7.57083 5.19128 7.52897 5.26458 7.50772 5.29169C7.48695 5.31818 7.46953 5.33496 7.45595 5.34158C7.36553 5.37531 7.2719 5.3921 7.17429 5.3921C7.07763 5.3921 6.95972 5.34528 6.82041 5.25134C6.68205 5.15755 6.53778 5.02881 6.38856 4.86464C6.23966 4.70109 6.0711 4.47178 5.88322 4.17702C5.69581 3.88287 5.50202 3.53514 5.30023 3.13319L5.1336 2.84213C5.02943 2.65501 4.88708 2.38243 4.7067 2.02391C4.52649 1.66601 4.36672 1.32012 4.22804 0.985013C4.17261 0.844871 4.08889 0.73784 3.97785 0.663765L3.92609 0.633734C3.8911 0.607246 3.8355 0.578909 3.75929 0.548263C3.6826 0.518232 3.60352 0.496518 3.51964 0.483274L0.666384 0.50314C0.37513 0.50314 0.177021 0.566897 0.073013 0.693795L0.0309946 0.75401C0.0103848 0.787736 0 0.841329 0 0.914634C0 0.988863 0.02045 1.0788 0.0624685 1.18599C0.479298 2.12925 0.931755 3.0394 1.4216 3.91583C1.9108 4.79303 2.33594 5.49867 2.69653 6.03398C3.05808 6.56945 3.42538 7.07488 3.80067 7.54952C4.1758 8.02477 4.42392 8.32907 4.54518 8.46321C4.66676 8.59735 4.76246 8.6973 4.83164 8.76398L5.0919 9.0053C5.25853 9.16592 5.50298 9.35843 5.82634 9.58219C6.14891 9.80642 6.50678 10.0273 6.89869 10.2452C7.29124 10.4623 7.74737 10.6396 8.26836 10.7769C8.78904 10.914 9.29582 10.9694 9.78886 10.9422H10.9865C11.2291 10.9223 11.4134 10.8484 11.538 10.7215L11.5794 10.6716C11.6072 10.6313 11.6334 10.5692 11.6572 10.4856C11.6816 10.4021 11.6939 10.31 11.6939 10.2096C11.687 9.92192 11.7097 9.66274 11.7615 9.43173C11.8131 9.20134 11.8725 9.02748 11.9388 8.91028C12.005 8.79278 12.0791 8.69421 12.1627 8.61429C12.2457 8.53359 12.3052 8.48554 12.3398 8.4686C12.3743 8.45166 12.4018 8.44042 12.4229 8.43303C12.5896 8.37959 12.7854 8.43195 13.0113 8.58903C13.2369 8.74658 13.4483 8.94016 13.6469 9.17116C13.8445 9.40216 14.0826 9.6615 14.3594 9.94918C14.6379 10.2365 14.8808 10.4508 15.0883 10.5917L15.2969 10.712C15.4361 10.7925 15.6165 10.866 15.8387 10.9326C16.0606 10.9999 16.2549 11.0169 16.4215 10.9832L19.0875 10.943C19.351 10.943 19.5563 10.9008 19.7017 10.8171C19.8477 10.7335 19.9338 10.6416 19.9619 10.5416C19.9901 10.4411 19.9912 10.3276 19.9675 10.2C19.9426 10.073 19.9182 9.98398 19.8945 9.93393Z" fill="white"/>
</svg>
